<?xml version="1.0" encoding="UTF-8"?>
<svg id="Layer_2" data-name="Layer 2" xmlns="http://www.w3.org/2000/svg" xmlns:xlink="http://www.w3.org/1999/xlink" viewBox="0 0 409.4 92.67">
  <defs>
    <style>
      .cls-1 {
        fill: #f3a41e;
      }

      .cls-1, .cls-2, .cls-3 {
        stroke-width: 0px;
      }

      .cls-2 {
        fill: #1d1d1b;
      }

      .cls-3 {
        fill: #ed2330;
      }
    </style>
    <symbol id="New_Symbol" data-name="New Symbol" viewBox="0 0 409.4 92.67">
      <g>
        <g>
          <path class="cls-2" d="m40.62,23.58l-20.61-.36c-4.02,0-7.17-2.54-7.17-5.79s3.21-6.11,7.17-6.11h39.26V0H21.09C8.87,0,0,7.33,0,17.43s8.82,17.43,19.61,17.43l20.28.64c4.64,0,8.57,3.51,8.57,7.65,0,3.81-2.87,7.65-9.28,7.65H.59v12.01h38.3c13.58,0,23.82-8.45,23.82-19.66s-9.91-19.57-22.09-19.58Z"/>
          <path class="cls-2" d="m72.68,45.12c0,12.71,4.79,17.38,16.93,17.38h7.63v-10.03h-5.19c-4.79,0-6.46-1.19-6.46-6.65v-22.54h11.84v-10.82h-11.84V.54h-12.52v11.92h-6.07v10.82h5.67v21.85Z"/>
          <path class="cls-2" d="m165.99,45.12c0,12.71,4.79,17.38,16.93,17.38h7.63v-10.03h-5.19c-4.79,0-6.46-1.19-6.46-6.65v-22.54h11.84v-10.82h-11.84V.54h-12.52v11.92h-6.07v10.82h5.67v21.85Z"/>
          <path class="cls-2" d="m215.63.54h-12.52v11.92h-6.07v10.82h5.67v21.85c0,12.71,4.79,17.38,16.93,17.38h7.63v-10.03h-5.19c-4.79,0-6.46-1.19-6.46-6.65v-22.54h11.84v-10.82h-11.84V.54Z"/>
          <path class="cls-2" d="m361.66,29.24c0-4.27,1.66-5.96,5.87-5.96h6.46v-10.82h-8.22c-12.13,0-17.02,5.06-17.02,17.28v32.77h12.91V29.24Z"/>
          <path class="cls-2" d="m397.56,12.45V.54h-12.52v11.92h-6.07v10.82h5.67v21.85c0,12.71,4.79,17.38,16.93,17.38h7.63v-10.03h-5.19c-4.79,0-6.46-1.19-6.46-6.65v-22.54h11.84v-10.82h-11.84Z"/>
          <path class="cls-2" d="m110.02,58.1c1.79,1.52,4.01,2.72,6.6,3.56,2.55.83,5.54,1.25,8.91,1.25h8.22c3.36,0,6.36-.42,8.91-1.25,2.59-.84,4.81-2.04,6.6-3.56,1.82-1.55,3.21-3.42,4.12-5.56.9-2.11,1.35-4.45,1.35-6.97V12.46h-12.26v32.82c0,1.84-.7,3.33-2.15,4.55-1.51,1.27-3.83,1.91-6.9,1.91h-7.21c-3.08,0-5.42-.65-6.96-1.92-1.47-1.22-2.19-2.7-2.19-4.54V12.46h-12.51v33.12c0,2.52.46,4.87,1.35,6.97.91,2.14,2.3,4.01,4.12,5.56Z"/>
          <path class="cls-2" d="m280.89,57.75c1.48-1.48,2.55-3.23,3.2-5.24.66-2.02.99-4.19.99-6.52v-23.43c0-1.83-.15-3.37-.44-4.63-.3-1.26-.84-2.28-1.63-3.07-.79-.79-1.89-1.37-3.3-1.75-1.41-.38-3.2-.57-5.37-.57h-24.36c-6.18,0-10.63,1.35-13.36,4.06-2.73,2.71-4.09,6.42-4.09,11.15,0,2.27.31,4.28.94,6.05.62,1.76,1.63,3.26,3.01,4.49,1.38,1.23,3.19,2.17,5.42,2.83,2.23.66,4.96.99,8.19.99h24.75v3.78c0,1.95-.61,3.59-1.82,4.91-1.22,1.32-3.27,1.98-6.16,1.98h-31.16v9.63h31.26c3.22,0,5.98-.41,8.28-1.23,2.3-.82,4.19-1.97,5.67-3.45Zm-6.07-23.57h-24.55c-2.76,0-4.7-.52-5.82-1.56-1.12-1.04-1.68-2.47-1.68-4.3s.56-3.29,1.68-4.39c1.12-1.1,2.99-1.65,5.62-1.65h21.89c1.91,0,2.86.85,2.86,2.55v9.35Z"/>
          <path class="cls-2" d="m307.88,62.83h24.36c2.19,0,4.04-.2,5.48-.58,1.48-.4,2.65-1.02,3.48-1.85.84-.84,1.42-1.94,1.74-3.27.3-1.28.45-2.87.45-4.72v-23.43c0-2.36-.34-4.6-1.01-6.65-.67-2.07-1.79-3.89-3.3-5.41-1.52-1.52-3.47-2.71-5.82-3.54-2.34-.83-5.17-1.25-8.42-1.25h-31.67v10.46h31.57c2.76,0,4.74.62,5.87,1.85,1.14,1.24,1.71,2.8,1.71,4.63v3.37h-24.35c-3.25,0-6.04.34-8.3,1.01-2.28.68-4.16,1.66-5.58,2.92-1.43,1.27-2.48,2.84-3.12,4.66-.64,1.8-.96,3.88-.96,6.19,0,4.82,1.42,8.67,4.21,11.44,2.79,2.77,7.38,4.18,13.65,4.18Zm-5.25-20.18c1.03-.96,2.9-1.45,5.54-1.45h24.15v8.94c0,1.46-.78,2.14-2.45,2.14h-21.89c-2.51,0-4.31-.52-5.34-1.54-1.05-1.03-1.55-2.37-1.55-4.1s.51-3.03,1.55-3.99Z"/>
        </g>
        <path class="cls-2" d="m228.97,78.71v9.99c0,2.19,1.87,3.98,4.19,3.98l30.15-.03v-3.93h-29.59c-.26,0-.54-.22-.54-.5v-8.98c0-.29.34-.55.68-.55h29.45v-3.93h-30.08c-2.34,0-4.27,1.76-4.27,3.94Z"/>
        <polygon class="cls-2" points="306.71 92.65 343.63 92.65 343.63 89.32 310.87 89.32 310.87 85.39 343.63 85.39 343.63 82.05 310.87 82.05 310.87 78.11 343.63 78.11 343.63 74.77 306.71 74.77 306.71 92.65"/>
        <polygon class="cls-2" points="297.61 82.02 272.33 82.02 272.33 74.75 268.17 74.75 268.17 92.63 272.33 92.63 272.33 85.94 297.61 85.94 297.61 92.63 301.79 92.63 301.79 85.94 301.79 82.02 301.79 74.75 297.61 74.75 297.61 82.02"/>
        <path class="cls-2" d="m219.82,82.05h-26.57c-.39,0-.71-.25-.71-.61v-2.67c0-.38.32-.65.71-.65h30.16v-3.34h-30.96c-2.28,0-4.1,1.81-4.1,3.99v2.67c0,2.18,1.89,3.96,4.22,3.96h26.56c.38,0,.7.25.7.61v2.69c0,.37-.33.62-.7.62h-30.21v3.35l30.89-.02c2.32,0,4.19-1.76,4.19-3.95v-2.69c0-2.18-1.87-3.96-4.19-3.96Z"/>
        <path class="cls-2" d="m179.49,86.55c2.22-.08,4.04-1.83,4.04-3.97v-3.87c0-2.18-1.88-3.93-4.21-3.94h-31.51v17.87h4.17v-4.7h23.2c2.31,0,4.2,1.79,4.2,3.96v.71h4.17v-.03c0-2.67-1.66-4.97-4.06-6.02Zm-.14-3.2c0,.33-.31.66-.66.66h-26.72v-5.31h26.64c.41,0,.74.32.74.69v3.96Z"/>
        <path class="cls-2" d="m138.67,74.77h-26.71c-2.3,0-4.2,1.76-4.2,3.94v9.99c0,2.19,1.9,3.94,4.2,3.94h26.66c2.3,0,4.16-1.75,4.16-3.94v-9.99c0-2.18-1.83-3.94-4.1-3.94Zm-.05,13.28c0,.35-.3.65-.64.65h-25.49c-.26,0-.53-.21-.53-.48v-8.98c0-.3.34-.55.68-.55h25.24c.42,0,.74.32.74.69v8.66Z"/>
        <path class="cls-2" d="m98.66,74.77h-31.4v17.87h4.15v-4.7h27.25c2.34,0,4.21-1.76,4.21-3.96v-5.26c0-2.18-1.87-3.93-4.21-3.94Zm.06,8.58c0,.33-.3.66-.65.66h-26.66v-5.31h26.58c.38,0,.72.32.72.69v3.96Z"/>
        <rect class="cls-2" x="356.14" y="78.11" width="53.26" height="10.59"/>
        <rect class="cls-3" x="356.14" y="74.48" width="53.26" height="1.31"/>
        <rect class="cls-1" x="356.14" y="90.81" width="53.26" height="1.31"/>
        <rect class="cls-2" x="0" y="78.11" width="53.26" height="10.59"/>
        <rect class="cls-3" x="0" y="74.48" width="53.26" height="1.31"/>
        <rect class="cls-1" x="0" y="90.81" width="53.26" height="1.31"/>
      </g>
    </symbol>
  </defs>
  <g id="Layer_1-2" data-name="Layer 1">
    <use width="409.4" height="92.67" xlink:href="#New_Symbol"/>
  </g>
</svg>